<?xml version="1.0" encoding="iso-8859-1"?>
<!-- Generator: Adobe Illustrator 16.0.0, SVG Export Plug-In . SVG Version: 6.00 Build 0)  -->
<!DOCTYPE svg PUBLIC "-//W3C//DTD SVG 1.1//EN" "http://www.w3.org/Graphics/SVG/1.1/DTD/svg11.dtd">
<svg xmlns="http://www.w3.org/2000/svg" xmlns:xlink="http://www.w3.org/1999/xlink" version="1.1" id="Capa_1" x="0px" y="0px" width="36px" height="36px" viewBox="0 0 607.339 607.339" style="enable-background:new 0 0 607.339 607.339;" xml:space="preserve">
<g>
	<g>
		<path d="M129.696,303.958c0-95.888,78.011-173.899,173.899-173.899c4.145,0,8.295,0.158,12.542,0.474L347.568,3.347    c-14.664-2.152-29.495-3.242-44.222-3.242c-139.828,0-260.908,94.788-294.453,230.514    c-23.581,95.434,0.387,195.663,64.131,270.255l90.404-94.009C141.616,377.159,129.696,340.951,129.696,303.958z" fill="#ff9b46"/>
		<path d="M459.899,227.684l125.942-36.395c-32.321-80.88-98.957-144.829-181.133-173.822l-31.427,127.157    C410.906,161.124,441.836,190.782,459.899,227.684z" fill="#ccc"/>
		<path d="M602.003,247.898l-125.646,36.328c0.755,6.603,1.138,13.21,1.138,19.732c0,95.893-78.011,173.899-173.899,173.899    c-35.281,0-68.908-10.38-97.796-30.107l-90.208,93.784c34.287,27.238,73.01,46.315,115.267,56.758    c24.002,5.929,48.592,8.941,73.086,8.941c0.01,0,0.01,0,0.02,0c139.837,0,260.97-94.951,294.568-230.901    C608.974,334.076,610.131,290.92,602.003,247.898z" fill="#ff9b46"/>
		<circle cx="307.066" cy="305.551" r="108.773" fill="#32D05A"/>
	</g>
</g>
<g>
</g>
<g>
</g>
<g>
</g>
<g>
</g>
<g>
</g>
<g>
</g>
<g>
</g>
<g>
</g>
<g>
</g>
<g>
</g>
<g>
</g>
<g>
</g>
<g>
</g>
<g>
</g>
<g>
</g>
</svg>
